<svg width="200" height="153" viewBox="0 0 200 153" fill="none" xmlns="http://www.w3.org/2000/svg">
<path d="M184.138 128.77C181.882 128.77 179.789 128.439 177.859 127.775C175.957 127.112 174.299 126.178 172.886 124.974C171.499 123.77 170.412 122.357 169.624 120.736C168.863 119.114 168.482 117.345 168.482 115.429C168.482 113.512 168.863 111.743 169.624 110.122C170.412 108.5 171.513 107.087 172.926 105.883C174.34 104.679 175.998 103.746 177.9 103.082C179.803 102.419 181.868 102.087 184.097 102.087C186.353 102.087 188.419 102.419 190.294 103.082C192.197 103.746 193.841 104.679 195.227 105.883C196.641 107.087 197.741 108.5 198.53 110.122C199.318 111.719 199.712 113.488 199.712 115.429C199.712 117.345 199.318 119.126 198.53 120.773C197.741 122.394 196.641 123.807 195.227 125.011C193.841 126.19 192.197 127.112 190.294 127.775C188.419 128.439 186.367 128.77 184.138 128.77ZM184.097 123.684C185.375 123.684 186.543 123.488 187.603 123.095C188.69 122.701 189.642 122.136 190.457 121.399C191.273 120.662 191.898 119.79 192.333 118.782C192.795 117.775 193.026 116.657 193.026 115.429C193.026 114.2 192.795 113.082 192.333 112.075C191.898 111.068 191.273 110.195 190.457 109.458C189.669 108.721 188.731 108.156 187.644 107.763C186.557 107.37 185.375 107.173 184.097 107.173C182.82 107.173 181.637 107.37 180.55 107.763C179.49 108.156 178.552 108.721 177.737 109.458C176.922 110.195 176.283 111.068 175.821 112.075C175.386 113.082 175.169 114.2 175.169 115.429C175.169 116.633 175.386 117.751 175.821 118.782C176.283 119.79 176.908 120.662 177.696 121.399C178.512 122.136 179.463 122.701 180.55 123.095C181.637 123.488 182.82 123.684 184.097 123.684Z" fill="white"/>
<path d="M146.144 112.922H159.884V117.566H146.144V112.922ZM146.634 123.536H162.167V128.328H140.07V102.529H161.637V107.32H146.634V123.536Z" fill="white"/>
<path d="M119.543 128.77C117.287 128.77 115.208 128.451 113.305 127.812C111.43 127.149 109.785 126.215 108.372 125.011C106.986 123.807 105.898 122.394 105.11 120.773C104.349 119.151 103.969 117.37 103.969 115.429C103.969 113.488 104.349 111.706 105.11 110.085C105.898 108.463 106.999 107.05 108.413 105.846C109.826 104.642 111.484 103.721 113.386 103.082C115.289 102.419 117.382 102.087 119.665 102.087C122.193 102.087 124.462 102.468 126.473 103.23C128.512 103.991 130.224 105.097 131.61 106.547L127.37 110.085C126.338 109.102 125.21 108.377 123.987 107.91C122.763 107.419 121.432 107.173 119.991 107.173C118.605 107.173 117.341 107.37 116.2 107.763C115.058 108.156 114.066 108.721 113.223 109.458C112.408 110.195 111.769 111.068 111.307 112.075C110.872 113.082 110.655 114.2 110.655 115.429C110.655 116.633 110.872 117.738 111.307 118.746C111.769 119.753 112.408 120.638 113.223 121.399C114.066 122.136 115.044 122.701 116.159 123.095C117.3 123.488 118.551 123.684 119.91 123.684C121.214 123.684 122.478 123.5 123.701 123.131C124.951 122.738 126.161 122.087 127.33 121.178L131.08 125.49C129.531 126.547 127.724 127.357 125.658 127.923C123.62 128.488 121.581 128.77 119.543 128.77ZM125.047 124.716V115.023H131.08V125.49L125.047 124.716Z" fill="white"/>
<path d="M72.9302 128.328V102.529H85.2833C87.8382 102.529 90.0398 102.91 91.888 103.672C93.7362 104.409 95.1631 105.477 96.1688 106.878C97.1744 108.278 97.6772 109.949 97.6772 111.89C97.6772 113.807 97.1744 115.465 96.1688 116.866C95.1631 118.242 93.7362 119.298 91.888 120.035C90.0398 120.772 87.8382 121.141 85.2833 121.141H76.5994L79.5348 118.524V128.328H72.9302ZM91.0726 128.328L83.9379 118.966H90.991L98.2072 128.328H91.0726ZM79.5348 119.188L76.5994 116.387H84.9164C86.9549 116.387 88.4769 115.993 89.4826 115.207C90.4882 114.396 90.991 113.291 90.991 111.89C90.991 110.465 90.4882 109.36 89.4826 108.573C88.4769 107.787 86.9549 107.394 84.9164 107.394H76.5994L79.5348 104.556V119.188Z" fill="white"/>
<path d="M48.7983 112.922H62.5376V117.566H48.7983V112.922ZM49.2875 123.536H64.8207V128.328H42.7236V102.529H64.2907V107.32H49.2875V123.536Z" fill="white"/>
<path d="M0.931641 128.328V102.529H6.39475L18.544 120.735H15.6494L27.5949 102.529H33.0172L33.0987 128.328H26.9018L26.861 111.116H28.0026L18.4625 125.6H15.4863L5.74244 111.116H7.1286V128.328H0.931641Z" fill="white"/>
<path d="M179.323 152.56C178.475 152.56 177.659 152.437 176.876 152.191C176.104 151.936 175.507 151.611 175.083 151.218L175.555 150.378C175.958 150.732 176.496 151.032 177.17 151.277C177.855 151.513 178.572 151.631 179.323 151.631C180.04 151.631 180.622 151.552 181.067 151.395C181.524 151.228 181.856 151.007 182.062 150.732C182.28 150.457 182.388 150.152 182.388 149.818C182.388 149.415 182.258 149.091 181.997 148.845C181.747 148.599 181.415 148.407 181.002 148.27C180.589 148.122 180.132 147.995 179.632 147.887C179.132 147.778 178.632 147.665 178.132 147.548C177.632 147.42 177.17 147.253 176.746 147.046C176.333 146.84 175.996 146.57 175.735 146.235C175.485 145.891 175.36 145.444 175.36 144.894C175.36 144.383 175.507 143.916 175.8 143.493C176.104 143.061 176.567 142.717 177.186 142.462C177.806 142.196 178.6 142.063 179.567 142.063C180.209 142.063 180.845 142.147 181.475 142.314C182.106 142.471 182.649 142.692 183.106 142.977L182.698 143.847C182.209 143.552 181.687 143.336 181.133 143.199C180.589 143.061 180.062 142.992 179.551 142.992C178.866 142.992 178.301 143.076 177.855 143.243C177.409 143.41 177.078 143.636 176.86 143.921C176.654 144.196 176.55 144.511 176.55 144.864C176.55 145.267 176.675 145.592 176.925 145.837C177.186 146.083 177.523 146.275 177.936 146.412C178.36 146.55 178.822 146.673 179.323 146.781C179.823 146.889 180.317 147.007 180.807 147.135C181.307 147.262 181.763 147.43 182.176 147.636C182.6 147.833 182.937 148.098 183.187 148.432C183.448 148.766 183.579 149.204 183.579 149.744C183.579 150.245 183.427 150.712 183.122 151.145C182.818 151.567 182.35 151.911 181.72 152.176C181.1 152.432 180.301 152.56 179.323 152.56Z" fill="white"/>
<path d="M161.518 152.472L166.736 142.153H167.927L173.145 152.472H171.873L167.079 142.787H167.568L162.773 152.472H161.518ZM163.572 149.716L163.931 148.831H170.568L170.927 149.716H163.572Z" fill="white"/>
<path d="M155.629 152.472V143.097H151.618V142.153H160.848V143.097H156.836V152.472H155.629Z" fill="white"/>
<path d="M139.004 152.472V142.153H139.999L147.875 151.116H147.353V142.153H148.544V152.472H147.549L139.689 143.509H140.211V152.472H139.004Z" fill="white"/>
<path d="M129.546 152.561C128.089 152.561 126.942 152.183 126.105 151.426C125.268 150.669 124.849 149.549 124.849 148.065V142.153H126.056V148.02C126.056 149.239 126.36 150.138 126.969 150.718C127.578 151.298 128.437 151.588 129.546 151.588C130.666 151.588 131.53 151.298 132.139 150.718C132.748 150.138 133.052 149.239 133.052 148.02V142.153H134.226V148.065C134.226 149.549 133.808 150.669 132.97 151.426C132.144 152.183 131.003 152.561 129.546 152.561Z" fill="white"/>
<path d="M112.18 152.472V142.153H116.452C117.42 142.153 118.252 142.296 118.947 142.581C119.643 142.856 120.176 143.259 120.546 143.789C120.926 144.31 121.116 144.944 121.116 145.691C121.116 146.418 120.926 147.047 120.546 147.578C120.176 148.099 119.643 148.502 118.947 148.787C118.252 149.072 117.42 149.214 116.452 149.214H112.848L113.386 148.699V152.472H112.18ZM113.386 148.787L112.848 148.256H116.42C117.561 148.256 118.426 148.035 119.013 147.593C119.611 147.141 119.91 146.507 119.91 145.691C119.91 144.866 119.611 144.227 119.013 143.775C118.426 143.323 117.561 143.097 116.42 143.097H112.848L113.386 142.581V148.787Z" fill="white"/>
<path d="M96.9392 152.56C96.0804 152.56 95.2813 152.432 94.542 152.176C93.8136 151.911 93.1776 151.543 92.634 151.071C92.1013 150.589 91.6827 150.034 91.3783 149.405C91.0848 148.766 90.938 148.068 90.938 147.312C90.938 146.555 91.0848 145.862 91.3783 145.233C91.6827 144.594 92.1013 144.039 92.634 143.567C93.1776 143.086 93.8136 142.717 94.542 142.462C95.2704 142.196 96.0695 142.063 96.9392 142.063C97.7981 142.063 98.5918 142.196 99.3202 142.462C100.049 142.717 100.679 143.081 101.212 143.552C101.755 144.024 102.174 144.579 102.468 145.218C102.772 145.857 102.924 146.555 102.924 147.312C102.924 148.068 102.772 148.766 102.468 149.405C102.174 150.044 101.755 150.599 101.212 151.071C100.679 151.543 100.049 151.911 99.3202 152.176C98.5918 152.432 97.7981 152.56 96.9392 152.56ZM96.9392 151.587C97.6242 151.587 98.2547 151.484 98.8309 151.277C99.418 151.061 99.9236 150.761 100.348 150.378C100.782 149.985 101.119 149.533 101.359 149.022C101.598 148.501 101.717 147.931 101.717 147.312C101.717 146.692 101.598 146.127 101.359 145.616C101.119 145.095 100.782 144.643 100.348 144.26C99.9236 143.867 99.418 143.567 98.8309 143.361C98.2547 143.145 97.6242 143.036 96.9392 143.036C96.2543 143.036 95.6183 143.145 95.0312 143.361C94.4442 143.567 93.9332 143.867 93.4983 144.26C93.0743 144.643 92.7373 145.095 92.4872 145.616C92.248 146.127 92.1285 146.692 92.1285 147.312C92.1285 147.921 92.248 148.486 92.4872 149.007C92.7373 149.528 93.0743 149.985 93.4983 150.378C93.9332 150.761 94.4442 151.061 95.0312 151.277C95.6183 151.484 96.2543 151.587 96.9392 151.587Z" fill="white"/>
<path d="M77.334 152.472V142.153H81.9817C83.1994 142.153 84.2648 142.374 85.178 142.816C86.1021 143.249 86.8197 143.853 87.3307 144.63C87.8416 145.406 88.0971 146.3 88.0971 147.313C88.0971 148.325 87.8416 149.219 87.3307 149.996C86.8197 150.772 86.1021 151.382 85.178 151.824C84.2648 152.256 83.1994 152.472 81.9817 152.472H77.334ZM78.5408 151.529H81.9165C82.9276 151.529 83.8027 151.352 84.542 150.998C85.2922 150.635 85.8738 150.138 86.287 149.509C86.7001 148.871 86.9067 148.138 86.9067 147.313C86.9067 146.477 86.7001 145.745 86.287 145.116C85.8738 144.487 85.2922 143.996 84.542 143.642C83.8027 143.278 82.9276 143.097 81.9165 143.097H78.5408V151.529Z" fill="white"/>
<path d="M62.9272 152.472V142.153H63.922L71.7987 151.116H71.2768V142.153H72.4673V152.472H71.4725L63.6122 143.509H64.134V152.472H62.9272Z" fill="white"/>
<path d="M51.9533 146.767H57.9871V147.696H51.9533V146.767ZM52.0837 151.529H58.9493V152.472H50.877V142.153H58.7047V143.097H52.0837V151.529Z" fill="white"/>
<path d="M44.814 152.472V142.153H46.0207V152.472H44.814Z" fill="white"/>
<path d="M30.4062 152.472V142.153H31.401L39.2777 151.116H38.7558V142.153H39.9463V152.472H38.9515L31.0912 143.509H31.613V152.472H30.4062Z" fill="white"/>
<path d="M20.9476 152.561C19.4908 152.561 18.3438 152.183 17.5067 151.426C16.6695 150.669 16.251 149.549 16.251 148.065V142.153H17.4578V148.02C17.4578 149.239 17.7622 150.138 18.371 150.718C18.9798 151.298 19.8387 151.588 20.9476 151.588C22.0674 151.588 22.9317 151.298 23.5406 150.718C24.1494 150.138 24.4538 149.239 24.4538 148.02V142.153H25.6279V148.065C25.6279 149.549 25.2094 150.669 24.3722 151.426C23.546 152.183 22.4044 152.561 20.9476 152.561Z" fill="white"/>
<path d="M48.8477 9.68626L58.3555 0.638672L93.4369 35.8269C93.5884 36.0504 93.7611 36.2639 93.9551 36.4645L101.297 44.0564L101.297 44.0615L101.297 44.0667L113.387 55.8166C116.848 59.1801 116.925 64.7131 113.558 68.1714C110.021 71.8058 106.127 75.6196 102.465 79.3998C102.328 79.5215 102.191 79.6464 102.052 79.7731C101.613 80.1747 101.154 80.5939 100.587 80.98C97.3033 82.8164 93.0755 82.3728 90.2396 79.6167L80.561 70.2105C77.1001 66.847 77.0232 61.314 80.3894 57.8557L84.0594 53.9994L93.0824 63.0638C94.0752 64.0064 94.5356 64.5069 95.1722 65.0533C98.1056 67.9867 102.852 63.527 100.399 60.7665L48.8477 9.68626Z" fill="#12B148"/>
<path d="M135.353 1.25136L145.014 10.4699L111.15 44.1073L106.231 39.3738L101.451 34.5088L135.353 1.25136Z" fill="#12B148"/>
</svg>
