<svg width="91" height="78" viewBox="0 0 91 78" fill="none" xmlns="http://www.w3.org/2000/svg">
<path d="M62.5472 77.5361L89.541 62.2109L74.8102 54.2376L53.3296 76.7512L62.5472 77.5361Z" fill="#D3D2D2"/>
<path d="M77.7969 34.3386L53.3297 48.4762V76.7515L77.7969 62.6138V34.3386Z" fill="#946948"/>
<path d="M77.7969 34.3385L53.3297 48.4761V48.7407L77.7969 34.6772V34.3385Z" fill="#835941"/>
<path d="M12.5507 24.9131L53.3301 48.4762V76.7515L12.5507 53.187V24.9131Z" fill="#B68853"/>
<path d="M77.7969 34.3384L53.3297 48.4761L12.5504 24.9129L37.0175 10.7766L77.7969 34.3384Z" fill="#B88B4F"/>
<path d="M37.0176 39.0508L12.5505 24.9132L37.0176 10.7768V39.0508Z" fill="#805043"/>
<path d="M77.7965 34.3384L86.1953 23.7355L45.1732 0.554565L37.0171 10.7765L77.7965 34.3384Z" fill="#DDB77E"/>
<path d="M37.0176 10.7767L26.7142 2.44807L2.46418 16.7481L12.5505 24.9131L37.0176 10.7767Z" fill="#DDB77E"/>
<path d="M90.085 33.4397L77.7965 34.3384L53.3293 48.4761L65.508 47.36L90.085 33.4397Z" fill="#DDB77E"/>
<path d="M53.3301 48.4763L12.5507 24.9131L0.461483 24.614L42.7699 49.3481L53.3301 48.4763Z" fill="#DDB77E"/>
<path d="M49.6647 69.7495L39.2808 63.7501V51.7499L49.6647 57.7507V69.7495ZM38.8452 64.0019L50.1016 70.5063V57.4975L38.8452 50.9931V64.0019Z" fill="#231F20"/>
<path d="M42.3876 54.9345V58.2149C42.3876 59.2849 43.1451 60.5978 44.0712 61.1334L44.7764 61.5399C45.7025 62.0756 46.46 61.6371 46.46 60.5684V57.2868L44.3995 56.0966L44.853 57.3174L43.9767 56.8125L45.1685 60.4431L43.2103 56.0135L44.1032 56.53L43.642 55.6594L42.3876 54.9345Z" fill="#231F20"/>
<path d="M44.1084 64.7015L44.7305 65.062V60.9507L44.1084 60.5915V64.7015Z" fill="#231F20"/>
<path d="M44.4202 64.5478L46.5586 66.5664L42.3879 64.1567L44.4202 64.5478Z" fill="#231F20"/>
<path d="M37.5504 62.7495L27.1665 56.7501V44.7512L37.5504 50.7506V62.7495ZM26.7297 57.0019L37.9873 63.5063V50.4988L26.7297 43.9944V57.0019Z" fill="#231F20"/>
<path d="M36.0146 59.8771L28.7092 55.6559L32.3957 50.3697L36.0146 59.8771ZM27.8137 55.7377L36.9023 60.9893L32.4008 49.1617L27.8137 55.7377Z" fill="#231F20"/>
<path d="M32.5839 55.5482L32.6759 51.9279L32.041 51.5597L32.133 55.2875L32.5839 55.5482ZM32.75 56.7384C32.75 56.4636 32.5839 56.1683 32.3591 56.0379C32.1203 55.8998 31.9682 56.011 31.9682 56.2872C31.9682 56.5543 32.1203 56.8496 32.3591 56.9877C32.5903 57.1219 32.75 57.0069 32.75 56.7384Z" fill="#231F20"/>
<path d="M25.4043 55.7325L15.0204 49.7317V37.7328L25.4043 43.7323V55.7325ZM14.5835 49.9849L25.8398 56.4893V43.4804L14.5835 36.976V49.9849Z" fill="#231F20"/>
<path d="M16.5699 49.5244L23.8574 53.7354V52.5004L16.5699 48.2894V49.5244Z" fill="#231F20"/>
<path d="M17.6586 48.1064L18.5029 48.5947V42.2859L17.6586 41.7988V48.1064Z" fill="#231F20"/>
<path d="M16.9146 42.3017L19.2471 43.6504L17.9748 40.5414L16.9146 42.3017Z" fill="#231F20"/>
<path d="M21.723 50.4535L22.5674 50.9419V44.6344L21.723 44.146V50.4535Z" fill="#231F20"/>
<path d="M20.9777 44.6501L23.3115 45.9976L22.0392 42.8898L20.9777 44.6501Z" fill="#231F20"/>
</svg>
