<svg width="264" height="46" viewBox="0 0 264 46" fill="none" xmlns="http://www.w3.org/2000/svg">
<path d="M247.806 27.0825C245.55 27.0825 243.458 26.7508 241.528 26.0874C239.625 25.424 237.967 24.4903 236.554 23.2864C235.168 22.0825 234.081 20.6697 233.292 19.0481C232.531 17.4264 232.151 15.6574 232.151 13.7409C232.151 11.8245 232.531 10.0554 233.292 8.43381C234.081 6.81219 235.181 5.39941 236.595 4.19548C238.008 2.99155 239.666 2.05789 241.569 1.3945C243.471 0.731109 245.537 0.399414 247.766 0.399414C250.021 0.399414 252.087 0.731109 253.963 1.3945C255.865 2.05789 257.509 2.99155 258.896 4.19548C260.309 5.39941 261.41 6.81219 262.198 8.43381C262.986 10.0309 263.38 11.7999 263.38 13.7409C263.38 15.6574 262.986 17.4387 262.198 19.0849C261.41 20.7065 260.309 22.1193 258.896 23.3232C257.509 24.5026 255.865 25.424 253.963 26.0874C252.087 26.7508 250.035 27.0825 247.806 27.0825ZM247.766 21.9965C249.043 21.9965 250.212 21.7999 251.272 21.4068C252.359 21.0137 253.31 20.4486 254.126 19.7115C254.941 18.9743 255.566 18.1021 256.001 17.0947C256.463 16.0874 256.694 14.9694 256.694 13.7409C256.694 12.5124 256.463 11.3945 256.001 10.3871C255.566 9.37976 254.941 8.50752 254.126 7.77042C253.337 7.03332 252.4 6.46821 251.313 6.07509C250.225 5.68197 249.043 5.48541 247.766 5.48541C246.488 5.48541 245.306 5.68197 244.219 6.07509C243.159 6.46821 242.221 7.03332 241.406 7.77042C240.59 8.50752 239.951 9.37976 239.489 10.3871C239.054 11.3945 238.837 12.5124 238.837 13.7409C238.837 14.9449 239.054 16.0628 239.489 17.0947C239.951 18.1021 240.577 18.9743 241.365 19.7115C242.18 20.4486 243.131 21.0137 244.219 21.4068C245.306 21.7999 246.488 21.9965 247.766 21.9965Z" fill="#1B2266"/>
<path d="M209.813 11.2344H223.552V15.8782H209.813V11.2344ZM210.302 21.8487H225.835V26.6398H203.738V0.841309H225.305V5.63246H210.302V21.8487Z" fill="#1B2266"/>
<path d="M183.211 27.0825C180.955 27.0825 178.876 26.763 176.973 26.1242C175.098 25.4608 173.454 24.5272 172.04 23.3232C170.654 22.1193 169.567 20.7065 168.779 19.0849C168.018 17.4633 167.637 15.682 167.637 13.7409C167.637 11.7999 168.018 10.0186 168.779 8.39696C169.567 6.77533 170.668 5.36256 172.081 4.15863C173.494 2.9547 175.152 2.03332 177.055 1.3945C178.958 0.731109 181.05 0.399414 183.333 0.399414C185.861 0.399414 188.131 0.780249 190.142 1.54192C192.18 2.30359 193.893 3.40924 195.279 4.85887L191.039 8.39696C190.006 7.41415 188.878 6.68934 187.655 6.22251C186.432 5.73111 185.1 5.48541 183.66 5.48541C182.273 5.48541 181.01 5.68197 179.868 6.07509C178.726 6.46821 177.734 7.03332 176.892 7.77042C176.076 8.50752 175.438 9.37976 174.976 10.3871C174.541 11.3945 174.323 12.5124 174.323 13.7409C174.323 14.9449 174.541 16.0505 174.976 17.0579C175.438 18.0653 176.076 18.9498 176.892 19.7115C177.734 20.4486 178.713 21.0137 179.827 21.4068C180.969 21.7999 182.219 21.9965 183.578 21.9965C184.883 21.9965 186.147 21.8122 187.37 21.4436C188.62 21.0505 189.829 20.3994 190.998 19.4903L194.749 23.8024C193.2 24.8589 191.392 25.6697 189.327 26.2348C187.288 26.7999 185.25 27.0825 183.211 27.0825ZM188.715 23.0284V13.3355H194.749V23.8024L188.715 23.0284Z" fill="#1B2266"/>
<path d="M136.599 26.6398V0.841309H148.952C151.507 0.841309 153.708 1.22214 155.556 1.98382C157.405 2.72092 158.832 3.78971 159.837 5.1902C160.843 6.59069 161.346 8.26146 161.346 10.2025C161.346 12.1189 160.843 13.7774 159.837 15.1779C158.832 16.5538 157.405 17.6103 155.556 18.3474C153.708 19.0846 151.507 19.4531 148.952 19.4531H140.268L143.203 16.8364V26.6398H136.599ZM154.741 26.6398L147.606 17.2787H154.659L161.876 26.6398H154.741ZM143.203 17.4998L140.268 14.6988H148.585C150.623 14.6988 152.145 14.3057 153.151 13.5194C154.157 12.7086 154.659 11.603 154.659 10.2025C154.659 8.77743 154.157 7.67178 153.151 6.88553C152.145 6.09929 150.623 5.70617 148.585 5.70617H140.268L143.203 2.86834V17.4998Z" fill="#1B2266"/>
<path d="M112.467 11.2344H126.206V15.8782H112.467V11.2344ZM112.956 21.8487H128.489V26.6398H106.392V0.841309H127.959V5.63246H112.956V21.8487Z" fill="#1B2266"/>
<path d="M64.6001 26.6398V0.841309H70.0632L82.2125 19.0477H79.3179L91.2633 0.841309H96.6856L96.7672 26.6398H90.5702L90.5295 9.42853H91.671L82.131 23.9126H79.1548L69.4109 9.42853H70.7971V26.6398H64.6001Z" fill="#1B2266"/>
<path d="M258.324 45.0946C257.317 45.0946 256.348 44.9574 255.418 44.6831C254.501 44.3978 253.791 44.0357 253.287 43.5968L253.849 42.6586C254.327 43.0536 254.966 43.3883 255.767 43.6626C256.581 43.926 257.433 44.0577 258.324 44.0577C259.177 44.0577 259.868 43.9699 260.397 43.7943C260.939 43.6078 261.333 43.3609 261.579 43.0536C261.837 42.7464 261.966 42.4062 261.966 42.0332C261.966 41.5833 261.811 41.2212 261.501 40.9468C261.204 40.6725 260.81 40.4585 260.32 40.3049C259.829 40.1403 259.286 39.9977 258.692 39.877C258.098 39.7563 257.504 39.6301 256.91 39.4984C256.316 39.3558 255.767 39.1692 255.263 38.9388C254.772 38.7083 254.372 38.4066 254.062 38.0335C253.765 37.6495 253.616 37.1502 253.616 36.5357C253.616 35.9651 253.791 35.4439 254.14 34.9721C254.501 34.4892 255.05 34.1052 255.786 33.8199C256.522 33.5236 257.465 33.3755 258.615 33.3755C259.377 33.3755 260.132 33.4688 260.881 33.6553C261.63 33.8309 262.276 34.0778 262.819 34.396L262.334 35.3671C261.753 35.0379 261.133 34.7965 260.475 34.6429C259.829 34.4892 259.202 34.4124 258.595 34.4124C257.782 34.4124 257.11 34.5057 256.581 34.6922C256.051 34.8788 255.657 35.1312 255.399 35.4494C255.153 35.7566 255.031 36.1078 255.031 36.5028C255.031 36.9527 255.179 37.3148 255.476 37.5891C255.786 37.8634 256.187 38.0774 256.677 38.231C257.181 38.3846 257.73 38.5218 258.324 38.6425C258.918 38.7632 259.506 38.8949 260.087 39.0375C260.681 39.1802 261.224 39.3667 261.714 39.5972C262.218 39.8166 262.618 40.1129 262.916 40.486C263.226 40.859 263.381 41.3473 263.381 41.9509C263.381 42.5105 263.2 43.0317 262.838 43.5145C262.476 43.9863 261.921 44.3704 261.172 44.6667C260.436 44.952 259.487 45.0946 258.324 45.0946Z" fill="#1B2266"/>
<path d="M237.172 44.9967L243.372 33.4751H244.786L250.985 44.9967H249.474L243.779 34.1829H244.36L238.664 44.9967H237.172ZM239.613 41.9188L240.04 40.9312H247.924L248.351 41.9188H239.613Z" fill="#1B2266"/>
<path d="M230.177 44.9967V34.5285H225.412V33.4751H236.377V34.5285H231.611V44.9967H230.177Z" fill="#1B2266"/>
<path d="M210.427 44.9967V33.4751H211.609L220.966 43.4824H220.346V33.4751H221.76V44.9967H220.578L211.24 34.9894H211.86V44.9967H210.427Z" fill="#1B2266"/>
<path d="M199.191 45.0955C197.46 45.0955 196.098 44.673 195.103 43.8281C194.109 42.9832 193.611 41.7322 193.611 40.0753V33.4751H195.045V40.026C195.045 41.3866 195.407 42.3906 196.13 43.038C196.853 43.6854 197.873 44.0091 199.191 44.0091C200.521 44.0091 201.548 43.6854 202.271 43.038C202.994 42.3906 203.356 41.3866 203.356 40.026V33.4751H204.751V40.0753C204.751 41.7322 204.254 42.9832 203.259 43.8281C202.278 44.673 200.921 45.0955 199.191 45.0955Z" fill="#1B2266"/>
<path d="M178.561 44.9967V33.4751H183.636C184.786 33.4751 185.774 33.6342 186.6 33.9524C187.427 34.2597 188.06 34.7096 188.499 35.3021C188.951 35.8837 189.177 36.5914 189.177 37.4254C189.177 38.2374 188.951 38.9396 188.499 39.5322C188.06 40.1137 187.427 40.5636 186.6 40.8818C185.774 41.2001 184.786 41.3592 183.636 41.3592H179.355L179.994 40.7831V44.9967H178.561ZM179.994 40.8818L179.355 40.2893H183.598C184.954 40.2893 185.98 40.0424 186.678 39.5486C187.388 39.0439 187.743 38.3361 187.743 37.4254C187.743 36.5036 187.388 35.7904 186.678 35.2856C185.98 34.7809 184.954 34.5285 183.598 34.5285H179.355L179.994 33.9524V40.8818Z" fill="#1B2266"/>
<path d="M160.455 45.0946C159.435 45.0946 158.486 44.952 157.608 44.6667C156.742 44.3704 155.987 43.9589 155.341 43.4322C154.708 42.8945 154.211 42.2746 153.849 41.5723C153.501 40.859 153.326 40.08 153.326 39.235C153.326 38.3901 153.501 37.6165 153.849 36.9143C154.211 36.201 154.708 35.5811 155.341 35.0544C155.987 34.5167 156.742 34.1052 157.608 33.8199C158.473 33.5236 159.422 33.3755 160.455 33.3755C161.476 33.3755 162.419 33.5236 163.284 33.8199C164.149 34.1052 164.898 34.5112 165.531 35.0379C166.177 35.5646 166.674 36.1846 167.023 36.8978C167.385 37.6111 167.565 38.3901 167.565 39.235C167.565 40.08 167.385 40.859 167.023 41.5723C166.674 42.2855 166.177 42.9055 165.531 43.4322C164.898 43.9589 164.149 44.3704 163.284 44.6667C162.419 44.952 161.476 45.0946 160.455 45.0946ZM160.455 44.0083C161.269 44.0083 162.018 43.8931 162.703 43.6626C163.4 43.4212 164.001 43.0866 164.504 42.6586C165.021 42.2197 165.421 41.7149 165.706 41.1443C165.99 40.5628 166.132 39.9263 166.132 39.235C166.132 38.5438 165.99 37.9128 165.706 37.3422C165.421 36.7606 165.021 36.2559 164.504 35.8279C164.001 35.389 163.4 35.0544 162.703 34.8239C162.018 34.5825 161.269 34.4618 160.455 34.4618C159.642 34.4618 158.886 34.5825 158.189 34.8239C157.491 35.0544 156.884 35.389 156.368 35.8279C155.864 36.2559 155.464 36.7606 155.167 37.3422C154.882 37.9128 154.74 38.5438 154.74 39.235C154.74 39.9154 154.882 40.5463 155.167 41.1279C155.464 41.7095 155.864 42.2197 156.368 42.6586C156.884 43.0866 157.491 43.4212 158.189 43.6626C158.886 43.8931 159.642 44.0083 160.455 44.0083Z" fill="#1B2266"/>
<path d="M137.165 44.9967V33.4751H142.686C144.133 33.4751 145.399 33.722 146.484 34.2158C147.581 34.6986 148.434 35.3734 149.041 36.2403C149.648 37.1071 149.951 38.1057 149.951 39.2359C149.951 40.3661 149.648 41.3647 149.041 42.2315C148.434 43.0984 147.581 43.7787 146.484 44.2725C145.399 44.7553 144.133 44.9967 142.686 44.9967H137.165ZM138.599 43.9433H142.609C143.81 43.9433 144.85 43.7458 145.728 43.3508C146.619 42.9448 147.31 42.3906 147.801 41.6884C148.292 40.9751 148.537 40.1576 148.537 39.2359C148.537 38.3032 148.292 37.4857 147.801 36.7834C147.31 36.0812 146.619 35.5325 145.728 35.1375C144.85 34.7315 143.81 34.5285 142.609 34.5285H138.599V43.9433Z" fill="#1B2266"/>
<path d="M120.05 44.9967V33.4751H121.232L130.589 43.4824H129.969V33.4751H131.384V44.9967H130.202L120.864 34.9894H121.484V44.9967H120.05Z" fill="#1B2266"/>
<path d="M107.013 38.6269H114.182V39.6638H107.013V38.6269ZM107.168 43.9433H115.325V44.9967H105.735V33.4751H115.034V34.5285H107.168V43.9433Z" fill="#1B2266"/>
<path d="M98.5322 44.9967V33.4751H99.9658V44.9967H98.5322Z" fill="#1B2266"/>
<path d="M81.416 44.9967V33.4751H82.5978L91.955 43.4824H91.3351V33.4751H92.7493V44.9967H91.5675L82.2297 34.9894H82.8496V44.9967H81.416Z" fill="#1B2266"/>
<path d="M70.1796 45.0955C68.4489 45.0955 67.0863 44.673 66.0918 43.8281C65.0973 42.9832 64.6001 41.7322 64.6001 40.0753V33.4751H66.0337V40.026C66.0337 41.3866 66.3953 42.3906 67.1186 43.038C67.8419 43.6854 68.8622 44.0091 70.1796 44.0091C71.5098 44.0091 72.5366 43.6854 73.2599 43.038C73.9832 42.3906 74.3448 41.3866 74.3448 40.026V33.4751H75.7397V40.0753C75.7397 41.7322 75.2424 42.9832 74.2479 43.8281C73.2663 44.673 71.9102 45.0955 70.1796 45.0955Z" fill="#1B2266"/>
<path d="M0.245605 5.30481L5.40054 0.399414L24.4208 19.4776C24.503 19.5988 24.5966 19.7146 24.7018 19.8233L28.6823 23.9395L28.6823 23.9422L28.6823 23.9451L35.2373 30.3156C37.1137 32.1392 37.1554 35.1391 35.3303 37.0141C33.4123 38.9846 31.3013 41.0523 29.3158 43.1018C29.2412 43.1678 29.167 43.2356 29.0919 43.3043C28.8537 43.522 28.6051 43.7493 28.2976 43.9586C26.5171 44.9543 24.2249 44.7138 22.6873 43.2195L17.4398 38.1196C15.5634 36.296 15.5217 33.2962 17.3468 31.4212L19.3366 29.3304L24.2287 34.2449C24.7669 34.7559 25.0166 35.0273 25.3617 35.3235C26.9521 36.9139 29.5253 34.496 28.1957 32.9993L0.245605 5.30481Z" fill="#12B148"/>
<path d="M47.147 0.731598L52.3848 5.72968L34.0244 23.9671L31.3574 21.4007L28.766 18.763L47.147 0.731598Z" fill="#12B148"/>
</svg>
