<svg width="53" height="45" viewBox="0 0 53 45" fill="none" xmlns="http://www.w3.org/2000/svg">
<path d="M0.245605 5.30481L5.40054 0.399414L24.4208 19.4776C24.503 19.5988 24.5966 19.7146 24.7018 19.8233L28.6823 23.9395L28.6823 23.9422L28.6823 23.9451L35.2373 30.3156C37.1137 32.1392 37.1553 35.1391 35.3303 37.0141C33.4123 38.9846 31.3013 41.0523 29.3158 43.1018C29.2412 43.1678 29.167 43.2356 29.0919 43.3043C28.8537 43.522 28.6051 43.7493 28.2976 43.9586C26.5171 44.9543 24.2249 44.7138 22.6873 43.2195L17.4398 38.1196C15.5634 36.296 15.5217 33.2962 17.3468 31.4212L19.3366 29.3304L24.2287 34.2449C24.7669 34.7559 25.0166 35.0273 25.3617 35.3235C26.9521 36.9139 29.5253 34.496 28.1957 32.9993L0.245605 5.30481Z" fill="#12B148"/>
<path d="M47.147 0.731598L52.3848 5.72968L34.0244 23.9671L31.3574 21.4007L28.766 18.763L47.147 0.731598Z" fill="#12B148"/>
</svg>
