<svg width="38" height="31" viewBox="0 0 38 31" fill="none" xmlns="http://www.w3.org/2000/svg">
<path d="M34.7442 15.5947C32.0607 12.1445 24.0174 6.84436 18.1182 16.3156C13.9915 23.6896 6.56225 22.4935 3.64941 19.912" stroke="black" stroke-width="0.8" stroke-dasharray="1 1"/>
<path fill-rule="evenodd" clip-rule="evenodd" d="M5.68768 9.2253L1.06735 12.2439L0.748203 12.4524L0.864767 12.8153L6.20936 29.4576L6.40356 30.0623L6.94578 29.7316L13.5861 25.6813L22.166 25.8808L22.3663 25.8855L22.5144 25.7505L27.7326 20.9947L36.763 20.2643L37.4844 20.2059L37.1746 19.5519L30.4771 5.41268L30.3468 5.1376L30.0426 5.12702L22.2626 4.85638L22.038 4.84857L21.883 5.01144L17.0491 10.0924L14.322 9.77227L13.7776 10.7152L16.8656 11.0777L21.4776 24.8646L13.4627 24.6782L13.316 24.6748L13.1907 24.7512L6.96727 28.5472L1.93344 12.8725L6.18844 10.0926L5.68768 9.2253ZM27.1853 20.1405L22.4082 24.4943L17.8087 10.7448L22.4526 5.86359L29.7036 6.11583L35.961 19.3259L27.4818 20.0117L27.3115 20.0255L27.1853 20.1405Z" fill="black"/>
<path fill-rule="evenodd" clip-rule="evenodd" d="M5.18164 5.54883C5.18164 2.75747 7.44448 0.494629 10.2358 0.494629C13.0272 0.494629 15.29 2.75747 15.29 5.54883C15.29 6.67871 14.9193 7.72199 14.2928 8.56366H14.311L10.236 15.6218L6.16093 8.56366H6.17888C5.5524 7.72199 5.18164 6.67871 5.18164 5.54883ZM7.26467 5.54885C7.26467 3.90791 8.59492 2.57766 10.2359 2.57766C11.8768 2.57766 13.2071 3.90791 13.2071 5.54885C13.2071 7.18979 11.8768 8.52004 10.2359 8.52004C8.59492 8.52004 7.26467 7.1898 7.26467 5.54885Z" fill="black"/>
</svg>
